<svg width="20" height="20" viewBox="0 0 20 20" fill="none" xmlns="http://www.w3.org/2000/svg">
	<g clip-path="url(#clip0)">
		<path d="M10.0005 20C15.5231 20 20.0001 15.523 20.0001 10.0004C20.0001 4.47781 15.5231 0.000854492 10.0005 0.000854492C4.47793 0.000854492 0.000976562 4.47781 0.000976562 10.0004C0.000976562 15.523 4.47793 20 10.0005 20Z" fill="#D62427"/>
		<path d="M0.000976562 10.0001C0.000976562 4.47677 4.47808 0 10.0007 0C15.5237 0 15.5237 20 10.0007 20C4.47821 19.9998 0.000976562 15.5227 0.000976562 10.0001Z" fill="#DC3027"/>
		<path d="M5.76829 2.75317L6.23489 4.19001H7.74574L6.52352 5.07752L6.99042 6.51435L5.76829 5.62654L4.54625 6.51435L5.0131 5.07752L3.79102 4.19001H5.30144L5.76829 2.75317Z" fill="#F8D12E"/>
		<path d="M9.29214 1.93591L9.14499 2.43992L9.57862 2.73565L9.05409 2.75097L8.90724 3.25528L8.72995 2.7609L8.20508 2.77686L8.6205 2.45554L8.44321 1.9615L8.87709 2.25723L9.29214 1.93591Z" fill="#F8D12E"/>
		<path d="M9.29214 6.44958L9.14499 6.95343L9.57862 7.24915L9.05409 7.26465L8.90724 7.76879L8.72995 7.27444L8.20508 7.29053L8.6205 6.96922L8.44321 6.47517L8.87709 6.7706L9.29214 6.44958Z" fill="#F8D12E"/>
		<path d="M10.5724 3.31165L10.4253 3.81566L10.859 4.11138L10.3344 4.127L10.1873 4.63101L10.0101 4.13663L9.48535 4.15259L9.90048 3.83128L9.7234 3.33723L10.1574 3.63296L10.5724 3.31165Z" fill="#F8D12E"/>
		<path d="M10.5724 5.15173L10.4253 5.65575L10.859 5.95147L10.3344 5.96693L10.1873 6.47111L10.0101 5.97689L9.48535 5.99285L9.90048 5.67154L9.7234 5.17745L10.1574 5.47288L10.5724 5.15173Z" fill="#F8D12E"/>
	</g>
	<defs>
		<clipPath id="clip0">
			<rect width="20" height="20" fill="white"/>
		</clipPath>
	</defs>
</svg>
