<svg width="20" height="20" viewBox="0 0 20 20" fill="none" xmlns="http://www.w3.org/2000/svg">
	<g clip-path="url(#clip0)">
		<path d="M1.76121 4.33374C1.11634 5.26973 0.626264 6.32069 0.329102 7.45027H4.87791L1.76121 4.33374Z" fill="#29337A"/>
		<path d="M7.19888 0.400269C6.04671 0.735812 4.97966 1.27124 4.04004 1.9696L7.19888 5.12844V0.400269Z" fill="#29337A"/>
		<path d="M4.27539 18.1972C5.15675 18.8139 6.14142 19.2914 7.19931 19.5995V15.2737L4.27539 18.1972Z" fill="#29337A"/>
		<path d="M0.444336 12.9526C0.774981 14.0237 1.28165 15.0173 1.92918 15.9012L4.87771 12.9526H0.444336Z" fill="#29337A"/>
		<path d="M1.92608 4.10162C1.87017 4.17805 1.81507 4.25557 1.76107 4.33389L4.87777 7.45042H0.328965C0.255244 7.73099 0.195077 8.01697 0.145508 8.30687H6.13166L1.92608 4.10162Z" fill="white"/>
		<path d="M4.04297 18.0322C4.11905 18.0889 4.19725 18.1428 4.2749 18.1972L7.19881 15.2736V19.5993C7.47972 19.6814 7.76502 19.7523 8.05526 19.8093V14.02L4.04297 18.0322Z" fill="white"/>
		<path d="M0.22168 12.0963C0.283747 12.3864 0.357003 12.6723 0.443686 12.9527H4.8771L1.92857 15.9012C2.24925 16.3394 2.60485 16.7505 2.99123 17.1307L8.02568 12.0963H0.22168Z" fill="white"/>
		<path d="M7.19892 0.400262V5.12843L4.04004 1.96976C3.60455 2.29361 3.19749 2.65313 2.82031 3.04234L8.0552 8.27722V0.190247C7.76513 0.247585 7.47983 0.318645 7.19892 0.400262Z" fill="white"/>
		<path d="M7.19897 12.9225L7.16895 12.9527H7.19897V12.9225Z" fill="#D32030"/>
		<path d="M8.02539 12.0962H8.05537V12.066L8.02539 12.0962Z" fill="#D32030"/>
		<path d="M11.8736 8.3067H11.8447V8.33575L11.8736 8.3067Z" fill="#D32030"/>
		<path d="M7.22873 7.45046L7.19922 7.42078V7.45046H7.22873Z" fill="#D32030"/>
		<path d="M8.05469 8.27722V8.30678H8.08424L8.05469 8.27722Z" fill="#D32030"/>
		<path d="M12.7012 17.3858V19.6274C13.7728 19.3274 14.772 18.8545 15.6657 18.2384L13.2368 15.8095C13.0427 16.4914 12.9716 16.844 12.7012 17.3858Z" fill="#252F6C"/>
		<path d="M13.2496 4.57992L15.9011 1.92839C14.9485 1.23078 13.8679 0.69916 12.7012 0.372314V2.67505C13.013 3.29952 13.0392 3.77402 13.2496 4.57992Z" fill="#252F6C"/>
		<path d="M18.0293 15.9594C18.697 15.0611 19.2174 14.0472 19.5555 12.9526H15.0225L18.0293 15.9594Z" fill="#252F6C"/>
		<path d="M19.6701 7.45044C19.3666 6.297 18.8618 5.22632 18.1966 4.27563L15.0215 7.45044H19.6701Z" fill="#252F6C"/>
		<path d="M13.833 12.2656L14.5202 12.9528L17.8094 16.2421C17.8841 16.1486 17.9583 16.0555 18.0297 15.9596L15.0229 12.9528H19.5559C19.6423 12.6725 19.7157 12.3866 19.7776 12.0964H13.8973C13.8876 12.2178 13.8445 12.145 13.833 12.2656Z" fill="#E7E7E7"/>
		<path d="M13.1454 5.08142L16.1266 2.09987C16.0519 2.04194 15.9771 1.98431 15.9008 1.92841L13.2493 4.57994C13.2768 4.68478 13.1198 4.97405 13.1454 5.08142Z" fill="#E7E7E7"/>
		<path d="M12.7012 2.49078V0.372133C12.4206 0.293514 12.135 0.226887 11.8447 0.172546V1.20599C12.1634 1.55145 12.449 1.98537 12.7012 2.49078Z" fill="#E7E7E7"/>
		<path d="M13.766 8.30669H19.8543C19.8048 8.01679 19.7445 7.73099 19.6708 7.45025H15.0222L18.1973 4.27545C17.8852 3.82954 17.5383 3.41018 17.1593 3.02161L13.583 6.59761C13.6793 7.24627 13.7224 7.62298 13.766 8.30669Z" fill="#E7E7E7"/>
		<path d="M13.0918 15.6646L15.6653 18.2385C16.0934 17.9437 16.4965 17.6156 16.8726 17.2594L13.4875 13.8741C13.3795 14.5002 13.2513 15.1049 13.0918 15.6646Z" fill="#E7E7E7"/>
		<path d="M11.8447 18.6751V19.8269C12.1349 19.7729 12.4204 19.7059 12.7012 19.6273V17.3857C12.4488 17.8913 12.1632 18.3301 11.8447 18.6751Z" fill="#E7E7E7"/>
		<path d="M13.5835 6.59766L17.1595 3.02166C16.8375 2.69101 16.4924 2.38329 16.1273 2.09985L13.3174 4.91023C13.4423 5.43223 13.499 6.02972 13.5835 6.59766Z" fill="#D71F28"/>
		<path d="M9.50098 0.012329C9.66759 0.00426448 9.83369 0 9.99992 0C9.83272 0 9.66632 0.00426448 9.50098 0.012329Z" fill="#D32030"/>
		<path d="M9.99963 20C9.83335 20 9.66725 19.9955 9.50098 19.9874C9.66632 19.9958 9.83243 20 9.99963 20Z" fill="#D32030"/>
		<path d="M10 19.9999C10.6309 19.9999 11.247 19.9388 11.8455 19.8269V18.675C11.3202 19.2444 10.7057 19.9999 10 19.9999Z" fill="#D32030"/>
		<path d="M19.8543 8.3067H13.8452C13.9247 9.56088 13.9151 10.8506 13.8164 12.0962H19.7782C19.9226 11.4199 19.9999 10.7192 19.9999 10.0001C19.9999 9.42252 19.9484 8.85758 19.8543 8.3067Z" fill="#D71F28"/>
		<path d="M13.8337 12.2656C13.7782 12.8565 13.5846 13.3169 13.4883 13.8743L16.8734 17.2594C17.2083 16.942 17.5214 16.6025 17.81 16.2421L14.5209 12.9526L13.8337 12.2656Z" fill="#D71F28"/>
		<path d="M11.8455 1.28036V0.172733C11.2473 0.0610961 10.6311 0 10 0C10.7057 0 11.3202 0.711156 11.8455 1.28036Z" fill="#D32030"/>
		<path d="M12.7021 17.8183C12.9726 17.2764 13.2046 16.6526 13.3988 15.9707L12.7021 15.2741V17.8183Z" fill="#29337A"/>
		<path d="M13.4855 4.34497C13.2748 3.53907 13.014 2.80642 12.7021 2.18195V5.12795L13.4855 4.34497Z" fill="#29337A"/>
		<path d="M14.0274 12.4596C14.0387 12.3389 14.049 12.2179 14.0588 12.0963H13.6641L14.0274 12.4596Z" fill="white"/>
		<path d="M12.7012 5.12799V2.18183C12.4488 1.67642 12.1634 1.2422 11.8447 0.897034V6.382L13.5647 4.66206C13.5388 4.55469 13.5116 4.44952 13.4844 4.34468L12.7012 5.12799Z" fill="white"/>
		<path d="M11.874 8.30675H14.0877C14.0443 7.62309 13.9751 6.95044 13.879 6.30194L11.874 8.30675Z" fill="white"/>
		<path d="M11.8447 19.1028C12.1634 18.7574 12.4488 18.3235 12.7012 17.8181V15.2739L13.3978 15.9705C13.5576 15.4105 13.6916 14.8122 13.8 14.1862L11.8448 12.2311L11.8447 19.1028Z" fill="white"/>
		<path d="M11.8453 19.1029V12.2311L13.8004 14.1863C13.8966 13.6287 13.9722 13.0505 14.0276 12.4596L13.6643 12.0962H14.059C14.1577 10.8506 14.1673 9.56088 14.0878 8.30675H11.8741L13.8789 6.30193C13.7944 5.73383 13.6899 5.18434 13.565 4.66218L11.8454 6.38211V0.897146C11.32 0.327774 10.7055 0 9.99983 0C9.83356 0 9.66745 0.00426448 9.50089 0.012329C9.00904 0.0369448 8.52668 0.0974498 8.05582 0.190297V8.27723L2.82081 3.04235C2.49916 3.37426 2.19997 3.72792 1.92615 4.10167L5.27495 7.45047L6.13169 8.30692H0.145584C0.0518071 8.85763 0 9.42256 0 10.0002C0 10.7194 0.0776896 11.4199 0.221669 12.0962H8.02584L2.99134 17.1307C3.32102 17.4546 3.67201 17.7562 4.04357 18.0321L8.05569 14.02V19.8094C8.52652 19.9023 9.0092 19.9627 9.50105 19.9874C9.66733 19.9954 9.83343 20 9.9997 20C10.7055 20 11.32 19.6722 11.8453 19.1029Z" fill="#E51D35"/>
	</g>
	<defs>
		<clipPath id="clip0">
			<rect width="20" height="20" fill="white"/>
		</clipPath>
	</defs>
</svg>
