<svg width="12" height="13" viewBox="0 0 12 13" fill="none" xmlns="http://www.w3.org/2000/svg">
	<path opacity="0.6" d="M10.125 8H9.375C9.16406 8 9 8.1875 9 8.375V11H1.5V3.5H4.875C5.0625 3.5 5.25 3.33594 5.25 3.125V2.375C5.25 2.1875 5.0625 2 4.875 2H1.125C0.492188 2 0 2.51562 0 3.125V11.375C0 12.0078 0.492188 12.5 1.125 12.5H9.375C9.98438 12.5 10.5 12.0078 10.5 11.375V8.375C10.5 8.1875 10.3125 8 10.125 8ZM11.4375 0.5H8.4375C7.92188 0.5 7.66406 1.10938 8.03906 1.46094L8.85938 2.30469L3.16406 8.02344C3.04688 8.11719 2.97656 8.25781 2.97656 8.42188C2.97656 8.58594 3.04688 8.72656 3.16406 8.82031L3.67969 9.33594C3.79688 9.45312 3.9375 9.52344 4.07812 9.52344C4.24219 9.52344 4.38281 9.45312 4.47656 9.33594L10.1953 3.64062L11.0391 4.46094C11.3906 4.8125 12 4.57812 12 4.0625V1.0625C12 0.757812 11.7422 0.5 11.4375 0.5Z" fill="#4B4C6E"/>
</svg>
