<svg width="140" height="56" viewBox="0 0 140 56" fill="none" xmlns="http://www.w3.org/2000/svg">
	<path d="M66.6117 26.5361C69.5784 26.5361 71.8522 24.7952 72.5628 22.2371H70.6443C70.0225 23.8182 68.5481 24.8663 66.6117 24.8663C64.0359 24.8663 62.2594 23.0188 62.2594 20.4962C62.2594 17.9737 64.0359 16.1262 66.6117 16.1262C68.5481 16.1262 70.0225 17.1743 70.6443 18.7553H72.5628C71.8522 16.1972 69.5784 14.4563 66.6117 14.4563C62.9878 14.4563 60.4297 17.0144 60.4297 20.4962C60.4297 23.978 62.9878 26.5361 66.6117 26.5361Z" fill="white"/>
	<path d="M74.375 26.305H76.187V22.1481H78.9582L81.7295 26.305H83.8968L80.8235 21.9882C82.6533 21.5263 83.4704 20.1585 83.4704 18.4176C83.4704 16.2681 82.2269 14.687 79.3668 14.687H74.375V26.305ZM76.187 20.4782V16.3569H79.3846C81.0544 16.3569 81.6407 17.2273 81.6407 18.4176C81.6407 19.59 81.0722 20.4782 79.3846 20.4782H76.187Z" fill="white"/>
	<path d="M88.5463 26.305H90.3583V21.2776L94.9238 14.687H92.8098L89.4523 19.7499L86.1126 14.687H83.9453L88.5463 21.3309V26.305Z" fill="white"/>
	<path d="M96.3867 26.305H98.1987V22.3435H101.254C104.185 22.3435 105.482 20.7092 105.482 18.5064C105.482 16.3036 104.185 14.687 101.254 14.687H96.3867V26.305ZM98.1987 20.6736V16.3569H101.29C103.031 16.3569 103.652 17.2806 103.652 18.5064C103.652 19.7499 103.031 20.6736 101.29 20.6736H98.1987Z" fill="white"/>
	<path d="M110.044 26.305H111.856V16.3569H115.551V14.687H106.367V16.3569H110.044V26.305Z" fill="white"/>
	<path d="M121.983 26.5361C125.607 26.5361 128.165 23.978 128.165 20.4962C128.165 17.0144 125.607 14.4563 121.983 14.4563C118.359 14.4563 115.801 17.0144 115.801 20.4962C115.801 23.978 118.359 26.5361 121.983 26.5361ZM121.983 24.8663C119.407 24.8663 117.631 23.0188 117.631 20.4962C117.631 17.9737 119.407 16.1262 121.983 16.1262C124.559 16.1262 126.335 17.9737 126.335 20.4962C126.335 23.0188 124.559 24.8663 121.983 24.8663Z" fill="white"/>
	<path d="M130.02 26.305H131.832V22.1481H134.603L137.374 26.305H139.541L136.468 21.9882C138.298 21.5263 139.115 20.1585 139.115 18.4176C139.115 16.2681 137.871 14.687 135.011 14.687H130.02V26.305ZM131.832 20.4782V16.3569H135.029C136.699 16.3569 137.285 17.2273 137.285 18.4176C137.285 19.59 136.717 20.4782 135.029 20.4782H131.832Z" fill="white"/>
	<path d="M66.2463 41.3824C69.4554 41.3824 71.7955 39.2429 72.0462 36.2511V35.4153H65.5777V36.9865H70.2243C69.7062 38.8084 68.2353 39.8112 66.2463 39.8112C63.8227 39.8112 62.1513 38.0729 62.1513 35.6995C62.1513 33.326 63.8227 31.5878 66.2463 31.5878C67.9177 31.5878 69.2047 32.39 69.8399 33.677H71.7286C70.943 31.4708 68.9039 30.0166 66.2463 30.0166C62.8366 30.0166 60.4297 32.4235 60.4297 35.6995C60.4297 38.9755 62.8366 41.3824 66.2463 41.3824Z" fill="white"/>
	<path d="M78.0311 41.3787C80.9729 41.3787 82.5942 39.607 82.5942 36.8491V30.2302H80.9394V36.8491C80.9394 38.6877 79.9533 39.8075 78.0311 39.8075C76.109 39.8075 75.1228 38.6877 75.1228 36.8491V30.2302H73.418V36.8491C73.418 39.6237 75.0727 41.3787 78.0311 41.3787Z" fill="white"/>
	<path d="M84.4922 41.1614H86.1971V37.2503H88.8045L91.4119 41.1614H93.4511L90.5595 37.0998C92.2811 36.6653 93.0499 35.3782 93.0499 33.7402C93.0499 31.7178 91.8799 30.2302 89.1889 30.2302H84.4922V41.1614ZM86.1971 35.6791V31.8014H89.2056C90.7768 31.8014 91.3284 32.6204 91.3284 33.7402C91.3284 34.8434 90.7935 35.6791 89.2056 35.6791H86.1971Z" fill="white"/>
	<path d="M99.3593 41.3787C102.301 41.3787 103.922 39.607 103.922 36.8491V30.2302H102.268V36.8491C102.268 38.6877 101.281 39.8075 99.3593 39.8075C97.4371 39.8075 96.451 38.6877 96.451 36.8491V30.2302H94.7461V36.8491C94.7461 39.6237 96.4008 41.3787 99.3593 41.3787Z" fill="white"/>
	<path d="M110.332 41.1614H118.171V39.5903H112.037V30.2302H110.332V41.1614Z" fill="white"/>
	<path d="M119.492 41.1651H121.147V37.7052H127.298V41.1651H129.003V34.7301C129.003 31.8385 127.315 30.0166 124.222 30.0166C121.164 30.0166 119.492 31.8385 119.492 34.7301V41.1651ZM121.147 36.1341V34.7301C121.147 32.7578 122.183 31.5878 124.222 31.5878C126.262 31.5878 127.298 32.7578 127.298 34.7301V36.1341H121.147Z" fill="white"/>
	<path d="M130.977 41.1614H136.676C138.749 41.1614 139.852 39.9246 139.852 38.2364C139.852 36.8993 139.1 35.8797 137.846 35.512V35.4785C138.799 35.044 139.35 34.1748 139.35 33.0382C139.35 31.4002 138.264 30.2302 136.242 30.2302H130.977V41.1614ZM132.681 34.81V31.8014H136.024C137.194 31.8014 137.662 32.4365 137.662 33.3057C137.662 34.1748 137.094 34.81 136.058 34.81H132.681ZM132.681 39.5903V36.3811H136.425C137.478 36.3811 138.097 37.0664 138.097 38.0191C138.097 38.8883 137.595 39.5903 136.392 39.5903H132.681Z" fill="white"/>
	<path d="M49.4578 30.3887C49.3547 31.2674 49.2025 32.1264 48.9964 32.9659C48.8786 33.4665 48.7411 33.9525 48.5889 34.4385C46.0413 42.4447 39.0021 48.4531 30.4314 49.4937C29.9454 49.5526 29.4545 49.5968 28.9587 49.6213C28.566 49.6459 28.1684 49.6557 27.7659 49.6557C27.2996 49.6557 26.8381 49.641 26.3816 49.6115C25.8858 49.5821 25.3949 49.533 24.909 49.4692C16.4217 48.3647 9.47086 42.3858 6.94775 34.4385C6.79067 33.9525 6.65322 33.4665 6.53541 32.9659C6.32924 32.1264 6.17707 31.2674 6.07398 30.3887C6.01508 29.9028 5.97581 29.4119 5.95126 28.9161C5.93163 28.5725 5.92181 28.2289 5.92181 27.8853V27.8116C5.92181 27.3404 5.93654 26.8741 5.96599 26.4126C6.01999 25.5389 6.12798 24.6798 6.28015 23.8355C6.37342 23.3397 6.48141 22.8439 6.60904 22.3629C6.73667 21.8622 6.87902 21.3762 7.04101 20.8902C7.20791 20.3945 7.38954 19.8987 7.59571 19.4176C10.5312 12.3588 17.0647 7.17511 24.909 6.15408V1.70673C14.6005 2.81611 6.0838 9.89458 2.87346 19.4176C2.71147 19.8987 2.5593 20.3945 2.42676 20.8902C2.29422 21.3762 2.17641 21.8671 2.07333 22.3629C1.96533 22.8489 1.87697 23.3397 1.80334 23.8355C1.67571 24.6798 1.58736 25.5389 1.54318 26.4126C1.51863 26.8741 1.50391 27.3404 1.50391 27.8116V27.8853C1.50391 28.2338 1.51373 28.5774 1.52845 28.9161C1.54809 29.4119 1.58245 29.9028 1.63154 30.3887C1.71498 31.2625 1.84261 32.1215 2.01442 32.9659C2.10769 33.4616 2.22059 33.9525 2.34822 34.4385C5.05296 44.8451 13.9722 52.7384 24.909 53.9165C25.3949 53.9705 25.8858 54.0098 26.3816 54.0393C26.8381 54.0638 27.2996 54.0736 27.7659 54.0736C28.1684 54.0736 28.566 54.0638 28.9587 54.0442C29.4545 54.0245 29.9454 53.9902 30.4314 53.9362C41.4565 52.8268 50.4641 44.904 53.1836 34.4385C53.3112 33.9525 53.4241 33.4616 53.5174 32.9659C53.6892 32.1215 53.8168 31.2625 53.9002 30.3887H49.4578Z" fill="white"/>
	<path d="M47.993 19.4292H52.7152C49.4853 9.8473 40.8802 2.7443 30.4883 1.69873V6.14117C38.416 7.10329 45.033 12.3164 47.993 19.4292Z" fill="white"/>
	<path d="M30.4883 22.3703H47.4579C47.3205 21.8696 47.1634 21.3788 46.9867 20.8977H42.6032C42.3724 20.3921 42.1074 19.9012 41.8227 19.4251C39.4026 15.3999 35.3038 12.5037 30.4883 11.7134V22.3703Z" fill="#F18856"/>
	<path d="M24.9492 27.901V11.756C20.2171 12.5905 16.1919 15.4622 13.8062 19.4334C13.5215 19.9095 13.2564 20.4004 13.0257 20.906C12.795 21.3822 12.5938 21.873 12.417 22.3786C12.2452 22.8597 12.098 23.3506 11.9753 23.8513C11.7642 24.6858 11.6169 25.5497 11.5433 26.4284C11.504 26.8898 11.4844 27.3561 11.4844 27.8274V27.901C11.4844 28.2495 11.4991 28.5932 11.5236 28.9319C11.5531 29.4277 11.612 29.9234 11.6856 30.4045C11.828 31.293 12.0391 32.152 12.3189 32.9816C12.4809 33.4823 12.6723 33.9781 12.8883 34.4542C15.058 39.3287 19.5446 42.9464 24.9492 43.8987C25.4302 43.9871 25.926 44.0509 26.4218 44.0902C26.8783 44.1294 27.3397 44.1491 27.8061 44.1491C28.2086 44.1491 28.6062 44.1344 28.9989 44.1049C29.4947 44.0705 29.9905 44.0116 30.4715 43.9331C35.9645 43.0299 40.5296 39.3876 42.7239 34.4542H24.9492V28.9319H48.1481C48.1677 28.5882 48.1775 28.2446 48.1775 27.901H24.9492Z" fill="#F18856"/>
	<path d="M53.4861 32.9737C53.3928 33.4695 53.2799 33.9603 53.1523 34.4463C50.4328 44.9118 41.4252 52.8346 30.4001 53.944C29.9141 53.998 29.4232 54.0323 28.9275 54.052C28.5348 54.0716 28.1371 54.0814 27.7346 54.0814C27.2683 54.0814 26.8069 54.0716 26.3503 54.0471C25.8546 54.0176 25.3637 53.9784 24.8777 53.9244C13.9409 52.7463 5.02169 44.8529 2.31695 34.4463C2.18932 33.9603 2.07642 33.4695 1.98315 32.9737C1.81134 32.1294 1.68371 31.2703 1.60026 30.3966C1.55118 29.9106 1.51681 29.4197 1.49718 28.9239C1.48245 28.5852 1.47263 28.2416 1.47263 27.8931V27.8195C1.47263 27.3482 1.48736 26.8819 1.51191 26.4204C1.55608 25.5467 1.64444 24.6876 1.77207 23.8433C1.8457 23.3475 1.93406 22.8567 2.04205 22.3707C2.14514 21.8749 2.26295 21.384 2.39548 20.8981C2.52802 20.4023 2.6802 19.9065 2.84219 19.4254C6.05253 9.9024 14.5693 2.82393 24.8777 1.71455V6.1619C17.0335 7.18293 10.4999 12.3666 7.56443 19.4254C7.35826 19.9065 7.17664 20.4023 7.00974 20.8981C6.84775 21.384 6.7054 21.87 6.57777 22.3707C6.45014 22.8518 6.34214 23.3475 6.24888 23.8433C6.09671 24.6876 5.98871 25.5467 5.93472 26.4204C5.90526 26.8819 5.89054 27.3482 5.89054 27.8195V27.8931C5.89054 28.2367 5.90036 28.5803 5.91999 28.9239C5.94453 29.4197 5.9838 29.9106 6.04271 30.3966C6.14579 31.2752 6.29797 32.1343 6.50414 32.9737C6.62195 33.4744 6.75939 33.9603 6.91647 34.4463C9.43959 42.3936 16.3904 48.3725 24.8777 49.477C25.3637 49.5408 25.8546 49.5899 26.3503 49.6194C26.8069 49.6488 27.2683 49.6635 27.7346 49.6635C28.1371 49.6635 28.5348 49.6537 28.9275 49.6292C29.4232 49.6046 29.9141 49.5604 30.4001 49.5015C38.9708 48.4609 46.01 42.4525 48.5577 34.4463C48.7098 33.9603 48.8473 33.4744 48.9651 32.9737C49.1713 32.1343 49.3234 31.2752 49.4265 30.3966H53.869C53.7855 31.2703 53.6579 32.1294 53.4861 32.9737ZM24.8777 10.2558C19.3112 11.1492 14.6085 14.6296 12.0462 19.4254C11.786 19.9065 11.5504 20.3974 11.3393 20.8981C11.1331 21.3791 10.9515 21.87 10.7944 22.3707C10.6324 22.8518 10.4999 23.3475 10.387 23.8433C10.1955 24.6827 10.063 25.5418 9.99919 26.4204C9.95992 26.8819 9.94028 27.3482 9.94028 27.8195V27.8931C9.94028 28.2367 9.95501 28.5803 9.97465 28.9239C10.0041 29.4197 10.0532 29.9106 10.1268 30.3966C10.2544 31.2801 10.4459 32.1392 10.7011 32.9737C10.8484 33.4744 11.0251 33.9652 11.2166 34.4463C13.5041 40.1405 18.6485 44.3817 24.8777 45.3831C25.3637 45.4616 25.8546 45.5205 26.3503 45.5598C26.8069 45.5942 27.2683 45.6138 27.7346 45.6138C28.1371 45.6138 28.5348 45.5991 28.9275 45.5696C29.4232 45.5402 29.9141 45.4862 30.4001 45.4125C36.7128 44.4651 41.9455 40.1994 44.2527 34.4463C44.4441 33.9652 44.6208 33.4744 44.7681 32.9737H26.3503V30.3966H47.9441C47.8361 31.2752 47.6692 32.1343 47.4483 32.9737C47.3207 33.4744 47.1685 33.9652 47.0016 34.4463C44.5325 41.6377 38.1511 47.0079 30.4001 48.0191C29.9141 48.0829 29.4232 48.1271 28.9275 48.1565C28.5298 48.1811 28.1371 48.1909 27.7346 48.1909C27.2683 48.1909 26.8069 48.1762 26.3503 48.1418C25.8546 48.1124 25.3637 48.0584 24.8777 47.9896C17.2151 46.9146 10.9171 41.5739 8.46765 34.4463C8.30075 33.9652 8.14858 33.4744 8.02095 32.9737C7.80005 32.1343 7.63316 31.2752 7.52516 30.3966C7.46135 29.9106 7.41717 29.4197 7.39263 28.9239C7.37299 28.5803 7.36317 28.2367 7.36317 27.8931V27.8195C7.36317 27.3482 7.3779 26.8819 7.41226 26.4204C7.47117 25.5418 7.58407 24.6827 7.75097 23.8433C7.84914 23.3426 7.96695 22.8518 8.09949 22.3707C8.23694 21.87 8.39402 21.3791 8.57073 20.8981C8.74745 20.3974 8.94871 19.9065 9.1647 19.4254C11.9922 13.1913 17.8631 8.63102 24.8777 7.64926V10.2558ZM30.4001 7.61981C37.5031 8.54757 43.4525 13.1324 46.3045 19.4254H43.4231C40.8313 14.5756 36.0501 11.0707 30.4001 10.2264V7.61981ZM30.4001 1.69491C40.792 2.74048 49.3971 9.84349 52.6271 19.4254H47.9048C44.9448 12.3126 38.3278 7.09948 30.4001 6.13736V1.69491ZM55.4447 28.9239H24.8777V34.4463H42.6524C40.4582 39.3796 35.893 43.0219 30.4001 43.9252C29.919 44.0037 29.4232 44.0626 28.9275 44.097C28.5348 44.1264 28.1371 44.1412 27.7346 44.1412C27.2683 44.1412 26.8069 44.1215 26.3503 44.0822C25.8546 44.043 25.3588 43.9792 24.8777 43.8908C19.4731 42.9385 14.9865 39.3207 12.8168 34.4463C12.6008 33.9702 12.4094 33.4744 12.2474 32.9737C11.9676 32.1441 11.7565 31.2851 11.6142 30.3966C11.5405 29.9155 11.4816 29.4197 11.4522 28.9239C11.4276 28.5852 11.4129 28.2416 11.4129 27.8931V27.8195C11.4129 27.3482 11.4326 26.8819 11.4718 26.4204C11.5455 25.5418 11.6927 24.6778 11.9038 23.8433C12.0265 23.3426 12.1738 22.8518 12.3456 22.3707C12.5223 21.8651 12.7236 21.3742 12.9543 20.8981C13.185 20.3925 13.4501 19.9016 13.7348 19.4254C16.1204 15.4542 20.1456 12.5826 24.8777 11.7481V27.8931H49.5787V27.8195C49.5787 27.3482 49.564 26.8819 49.5345 26.4204C49.4805 25.5467 49.3725 24.6876 49.2204 23.8433C49.1271 23.3475 49.0191 22.8518 48.8915 22.3707H30.4001V11.7137C35.2156 12.5041 39.3144 15.4002 41.7345 19.4254C42.0192 19.9016 42.2843 20.3925 42.515 20.8981H54.5955C54.4728 20.4023 54.3304 19.9114 54.1733 19.4254C50.8746 9.02372 41.6118 1.27766 30.4001 0.212459C29.9092 0.163371 29.4232 0.12901 28.9275 0.109375V23.8433H47.7183C47.8852 24.6827 47.9981 25.5418 48.057 26.4204H26.3503V0.119193C25.8595 0.143737 25.3686 0.178099 24.8777 0.227187C13.7544 1.36602 4.57499 9.08263 1.29592 19.4254C1.13884 19.9114 0.996482 20.4023 0.873763 20.8981C0.746134 21.384 0.633232 21.8749 0.539965 22.3707C0.436881 22.8567 0.353433 23.3475 0.28471 23.8433C0.161991 24.6876 0.0785404 25.5516 0.0343613 26.4204C0.00981741 26.8868 0 27.3531 0 27.8195V27.8931C0 28.2367 0.00981532 28.5803 0.0245417 28.9239C0.039268 29.4197 0.0736307 29.9057 0.11781 30.3966C0.19635 31.2654 0.319069 32.1294 0.481059 32.9737C0.569417 33.4695 0.677411 33.9603 0.80013 34.4463C3.54905 45.6678 13.131 54.2091 24.8777 55.4117C25.3686 55.4608 25.8595 55.4952 26.3503 55.5197C26.8118 55.5443 27.2732 55.5541 27.7346 55.5541C28.1322 55.5541 28.5298 55.5443 28.9275 55.5295C29.4232 55.5099 29.9092 55.4755 30.4001 55.4264C42.2352 54.2974 51.9055 45.7267 54.6691 34.4463C54.7918 33.9603 54.8998 33.4695 54.9882 32.9737C55.1502 32.1294 55.2729 31.2654 55.3514 30.3966C55.3956 29.9057 55.43 29.4197 55.4447 28.9239Z" fill="#9E9E9E"/>
</svg>
