<svg width="48" height="48" viewBox="0 0 48 48" fill="none" xmlns="http://www.w3.org/2000/svg">
	<path d="M42.3924 26.0475C42.304 26.8007 42.1736 27.537 41.9969 28.2565C41.8959 28.6857 41.7781 29.1022 41.6477 29.5187C39.464 36.3812 33.4304 41.5312 26.084 42.4232C25.6675 42.4737 25.2467 42.5116 24.8218 42.5326C24.4852 42.5537 24.1444 42.5621 23.7993 42.5621C23.3996 42.5621 23.0041 42.5495 22.6128 42.5242C22.1879 42.499 21.7671 42.4569 21.3506 42.4022C14.0757 41.4555 8.11788 36.3307 5.95521 29.5187C5.82057 29.1022 5.70276 28.6857 5.60178 28.2565C5.42506 27.537 5.29463 26.8007 5.20627 26.0475C5.15578 25.631 5.12212 25.2102 5.10108 24.7853C5.08425 24.4908 5.07584 24.1962 5.07584 23.9017V23.8386C5.07584 23.4347 5.08846 23.0349 5.11371 22.6394C5.15999 21.8905 5.25255 21.1542 5.38299 20.4305C5.46293 20.0055 5.5555 19.5806 5.66489 19.1682C5.77429 18.7391 5.8963 18.3225 6.03515 17.906C6.17821 17.481 6.33389 17.0561 6.51061 16.6437C9.02671 10.5933 14.6269 6.15014 21.3506 5.27497V1.46295C12.5147 2.41385 5.21469 8.48111 2.46296 16.6437C2.32411 17.0561 2.19368 17.481 2.08008 17.906C1.96648 18.3225 1.8655 18.7433 1.77714 19.1682C1.68457 19.5848 1.60883 20.0055 1.54572 20.4305C1.43633 21.1542 1.36059 21.8905 1.32272 22.6394C1.30169 23.0349 1.28906 23.4347 1.28906 23.8386V23.9017C1.28906 24.2004 1.29748 24.495 1.3101 24.7853C1.32693 25.2102 1.35638 25.631 1.39846 26.0475C1.46999 26.7965 1.57938 27.5328 1.72665 28.2565C1.80659 28.6814 1.90336 29.1022 2.01276 29.5187C4.33111 38.4387 11.9762 45.2044 21.3506 46.2142C21.7671 46.2605 22.1879 46.2942 22.6128 46.3194C23.0041 46.3404 23.3996 46.3489 23.7993 46.3489C24.1444 46.3489 24.4852 46.3404 24.8218 46.3236C25.2467 46.3068 25.6675 46.2773 26.084 46.231C35.5341 45.2801 43.2549 38.4892 45.5859 29.5187C45.6953 29.1022 45.7921 28.6814 45.872 28.2565C46.0193 27.5328 46.1287 26.7965 46.2002 26.0475H42.3924Z" fill="white"/>
	<path d="M41.1369 16.6536H45.1845C42.4159 8.44048 35.0401 2.3522 26.1328 1.45599V5.2638C32.928 6.08848 38.5997 10.5569 41.1369 16.6536Z" fill="white"/>
	<path d="M26.1328 19.1745H40.6782C40.5604 18.7454 40.4258 18.3246 40.2743 17.9123H36.517C36.3192 17.4789 36.092 17.0581 35.848 16.65C33.7737 13.1998 30.2604 10.7174 26.1328 10.04V19.1745Z" fill="#F18856"/>
	<path d="M21.385 23.9151V10.0765C17.3289 10.7918 13.8788 13.2532 11.8339 16.6571C11.5899 17.0652 11.3627 17.486 11.1649 17.9194C10.9672 18.3275 10.7947 18.7482 10.6432 19.1816C10.4959 19.594 10.3697 20.0147 10.2645 20.4439C10.0836 21.1592 9.95735 21.8997 9.89424 22.6528C9.86058 23.0483 9.84375 23.4481 9.84375 23.852V23.9151C9.84375 24.2138 9.85637 24.5083 9.87741 24.7987C9.90266 25.2236 9.95315 25.6486 10.0163 26.0609C10.1383 26.8225 10.3192 27.5588 10.559 28.2699C10.6979 28.699 10.862 29.124 11.0471 29.5321C12.9068 33.7102 16.7525 36.8112 21.385 37.6274C21.7973 37.7031 22.2223 37.7578 22.6473 37.7915C23.0386 37.8252 23.4341 37.842 23.8338 37.842C24.1788 37.842 24.5196 37.8294 24.8562 37.8041C25.2812 37.7747 25.7061 37.7242 26.1185 37.6569C30.8267 36.8827 34.7397 33.7607 36.6204 29.5321H21.385V24.7987H41.2698C41.2866 24.5041 41.295 24.2096 41.295 23.9151H21.385Z" fill="#F18856"/>
	<path d="M45.8452 28.2623C45.7653 28.6873 45.6685 29.108 45.5591 29.5245C43.2281 38.495 35.5073 45.2859 26.0572 46.2368C25.6407 46.2831 25.2199 46.3126 24.795 46.3294C24.4584 46.3462 24.1175 46.3547 23.7725 46.3547C23.3728 46.3547 22.9773 46.3462 22.586 46.3252C22.161 46.3 21.7403 46.2663 21.3237 46.22C11.9494 45.2102 4.3043 38.4445 1.98595 29.5245C1.87656 29.108 1.77978 28.6873 1.69984 28.2623C1.55258 27.5386 1.44318 26.8023 1.37165 26.0533C1.32958 25.6368 1.30012 25.216 1.28329 24.7911C1.27067 24.5008 1.26226 24.2062 1.26226 23.9075V23.8444C1.26226 23.4405 1.27488 23.0407 1.29592 22.6452C1.33379 21.8963 1.40952 21.16 1.51892 20.4363C1.58203 20.0113 1.65776 19.5906 1.75033 19.174C1.83869 18.7491 1.93967 18.3283 2.05327 17.9118C2.16688 17.4868 2.29731 17.0619 2.43616 16.6495C5.18788 8.48691 12.4879 2.41966 21.3237 1.46876V5.28078C14.6001 6.15594 8.9999 10.5991 6.4838 16.6495C6.30708 17.0619 6.1514 17.4868 6.00835 17.9118C5.8695 18.3283 5.74748 18.7449 5.63809 19.174C5.52869 19.5864 5.43612 20.0113 5.35618 20.4363C5.22575 21.16 5.13318 21.8963 5.0869 22.6452C5.06165 23.0407 5.04903 23.4405 5.04903 23.8444V23.9075C5.04903 24.202 5.05745 24.4966 5.07428 24.7911C5.09531 25.216 5.12898 25.6368 5.17947 26.0533C5.26782 26.8065 5.39826 27.5428 5.57497 28.2623C5.67595 28.6915 5.79376 29.108 5.9284 29.5245C8.09107 36.3365 14.0489 41.4613 21.3237 42.408C21.7403 42.4627 22.161 42.5048 22.586 42.53C22.9773 42.5553 23.3728 42.5679 23.7725 42.5679C24.1175 42.5679 24.4584 42.5595 24.795 42.5384C25.2199 42.5174 25.6407 42.4795 26.0572 42.429C33.4036 41.537 39.4372 36.387 41.6209 29.5245C41.7513 29.108 41.8691 28.6915 41.9701 28.2623C42.1468 27.5428 42.2772 26.8065 42.3656 26.0533H46.1734C46.1019 26.8023 45.9925 27.5386 45.8452 28.2623ZM21.3237 8.78986C16.5524 9.55562 12.5216 12.5388 10.3253 16.6495C10.1023 17.0619 9.90031 17.4826 9.71939 17.9118C9.54267 18.3241 9.38699 18.7449 9.25235 19.174C9.1135 19.5864 8.9999 20.0113 8.90313 20.4363C8.73903 21.1558 8.62543 21.8921 8.57073 22.6452C8.53708 23.0407 8.52024 23.4405 8.52024 23.8444V23.9075C8.52024 24.202 8.53287 24.4966 8.5497 24.7911C8.57494 25.216 8.61702 25.6368 8.68013 26.0533C8.78952 26.8107 8.95362 27.547 9.17241 28.2623C9.29863 28.6915 9.45011 29.1122 9.6142 29.5245C11.5749 34.4053 15.9844 38.0406 21.3237 38.8989C21.7403 38.9662 22.161 39.0167 22.586 39.0504C22.9773 39.0798 23.3728 39.0967 23.7725 39.0967C24.1175 39.0967 24.4584 39.0841 24.795 39.0588C25.2199 39.0336 25.6407 38.9873 26.0572 38.9242C31.4681 38.1121 35.9533 34.4558 37.9309 29.5245C38.095 29.1122 38.2464 28.6915 38.3727 28.2623H22.586V26.0533H41.0949C41.0024 26.8065 40.8593 27.5428 40.67 28.2623C40.5606 28.6915 40.4301 29.1122 40.2871 29.5245C38.1707 35.6886 32.7009 40.2916 26.0572 41.1584C25.6407 41.2131 25.2199 41.2509 24.795 41.2762C24.4542 41.2972 24.1175 41.3056 23.7725 41.3056C23.3728 41.3056 22.9773 41.293 22.586 41.2635C22.161 41.2383 21.7403 41.192 21.3237 41.1331C14.7558 40.2117 9.35754 35.6339 7.25799 29.5245C7.11493 29.1122 6.98449 28.6915 6.8751 28.2623C6.68576 27.5428 6.54271 26.8065 6.45014 26.0533C6.39544 25.6368 6.35757 25.216 6.33654 24.7911C6.31971 24.4966 6.31129 24.202 6.31129 23.9075V23.8444C6.31129 23.4405 6.32391 23.0407 6.35337 22.6452C6.40386 21.8921 6.50063 21.1558 6.64369 20.4363C6.72784 20.0071 6.82882 19.5864 6.94242 19.174C7.06023 18.7449 7.19487 18.3241 7.34634 17.9118C7.49781 17.4826 7.67032 17.0619 7.85545 16.6495C10.279 11.306 15.3112 7.39716 21.3237 6.55566V8.78986ZM26.0572 6.53041C32.1455 7.32563 37.245 11.2555 39.6896 16.6495H37.2198C34.9982 12.4925 30.9001 9.4883 26.0572 8.76461V6.53041ZM26.0572 1.45193C34.9646 2.34813 42.3404 8.43642 45.1089 16.6495H41.0613C38.5241 10.5528 32.8524 6.08441 26.0572 5.25974V1.45193ZM47.524 24.7911H21.3237V29.5245H36.5592C34.6784 33.7531 30.7654 36.8751 26.0572 37.6493C25.6449 37.7166 25.2199 37.7671 24.795 37.7965C24.4584 37.8218 24.1175 37.8344 23.7725 37.8344C23.3728 37.8344 22.9773 37.8176 22.586 37.7839C22.161 37.7503 21.7361 37.6956 21.3237 37.6198C16.6913 36.8036 12.8456 33.7026 10.9859 29.5245C10.8007 29.1164 10.6366 28.6915 10.4978 28.2623C10.258 27.5512 10.077 26.8149 9.95501 26.0533C9.8919 25.641 9.84141 25.216 9.81616 24.7911C9.79513 24.5008 9.7825 24.2062 9.7825 23.9075V23.8444C9.7825 23.4405 9.79933 23.0407 9.83299 22.6452C9.89611 21.8921 10.0223 21.1516 10.2033 20.4363C10.3084 20.0071 10.4347 19.5864 10.5819 19.174C10.7334 18.7407 10.9059 18.3199 11.1037 17.9118C11.3014 17.4784 11.5286 17.0576 11.7727 16.6495C13.8175 13.2456 17.2677 10.7842 21.3237 10.0689V23.9075H42.496V23.8444C42.496 23.4405 42.4834 23.0407 42.4582 22.6452C42.4119 21.8963 42.3193 21.16 42.1889 20.4363C42.1089 20.0113 42.0164 19.5864 41.907 19.174H26.0572V10.0395C30.1848 10.7169 33.6981 13.1993 35.7724 16.6495C36.0164 17.0576 36.2436 17.4784 36.4414 17.9118H46.7961C46.6909 17.4868 46.5689 17.0661 46.4343 16.6495C43.6068 7.73376 35.6672 1.09429 26.0572 0.181253C25.6365 0.139178 25.2199 0.109726 24.795 0.0928955V20.4363H40.9014C41.0444 21.1558 41.1412 21.8921 41.1917 22.6452H22.586V0.101311C22.1653 0.122348 21.7445 0.151802 21.3237 0.193877C11.7895 1.17002 3.92142 7.78426 1.11079 16.6495C0.976146 17.0661 0.854128 17.4868 0.748939 17.9118C0.639544 18.3283 0.54277 18.7491 0.462827 19.174C0.374469 19.5906 0.302943 20.0113 0.244037 20.4363C0.138849 21.16 0.0673203 21.9005 0.0294526 22.6452C0.00841493 23.045 0 23.4447 0 23.8444V23.9075C0 24.202 0.00841313 24.4966 0.0210357 24.7911C0.0336583 25.216 0.063112 25.6326 0.10098 26.0533C0.1683 26.7981 0.273487 27.5386 0.412336 28.2623C0.488071 28.6873 0.580638 29.108 0.685826 29.5245C3.04204 39.143 11.2551 46.4641 21.3237 47.4949C21.7445 47.537 22.1653 47.5664 22.586 47.5875C22.9815 47.6085 23.377 47.6169 23.7725 47.6169C24.1133 47.6169 24.4542 47.6085 24.795 47.5959C25.2199 47.579 25.6365 47.5496 26.0572 47.5075C36.2016 46.5398 44.4904 39.1934 46.8592 29.5245C46.9644 29.108 47.057 28.6873 47.1327 28.2623C47.2716 27.5386 47.3768 26.7981 47.4441 26.0533C47.4819 25.6326 47.5114 25.216 47.524 24.7911Z" fill="#9E9E9E"/>
</svg>
