<svg width="24" height="24" viewBox="0 0 24 24" fill="none" xmlns="http://www.w3.org/2000/svg">
	<path fill-rule="evenodd" clip-rule="evenodd" d="M21.25 12.0005C21.25 17.1095 17.109 21.2505 12 21.2505C6.891 21.2505 2.75 17.1095 2.75 12.0005C2.75 6.89149 6.891 2.75049 12 2.75049C17.109 2.75049 21.25 6.89149 21.25 12.0005Z" stroke="#F6EFFF" stroke-width="1.5" stroke-linecap="round" stroke-linejoin="round"/>
	<path d="M13.241 9.65995C13.241 11.3367 11.0279 11.3192 10.9212 13.1422C10.9003 13.4994 11.2229 13.7594 11.5807 13.756C12.0263 13.7518 12.3413 13.3174 12.5506 12.9241C13.0891 11.9126 14.963 11.5436 14.963 9.30995C14.963 7.96595 13.885 6.84595 12.023 6.84595C10.9977 6.84595 10.1394 7.25378 9.58356 7.8432C9.36157 8.07861 9.39762 8.44 9.6118 8.68253C9.91776 9.02898 10.4542 8.98426 10.8465 8.73973C11.1473 8.55217 11.4946 8.45595 11.925 8.45595C12.681 8.45595 13.241 9.00195 13.241 9.65995ZM10.651 15.7499C10.651 16.3239 11.071 16.8699 11.757 16.8699C12.373 16.8699 12.793 16.3239 12.793 15.7499C12.793 15.2599 12.373 14.7139 11.757 14.7139C11.071 14.7139 10.651 15.2599 10.651 15.7499Z" fill="#F6EFFF"/>
</svg>
