<svg width="26" height="26" viewBox="0 0 26 26" fill="none" xmlns="http://www.w3.org/2000/svg">
	<g clip-path="url(#clip0)">
		<path d="M13.0014 26.0005C20.1808 26.0005 26.0009 20.1804 26.0009 13.001C26.0009 5.82164 20.1808 0.00158691 13.0014 0.00158691C5.82201 0.00158691 0.00195312 5.82164 0.00195312 13.001C0.00195312 20.1804 5.82201 26.0005 13.0014 26.0005Z" fill="white"/>
		<path d="M25.2568 8.66553H17.2471C17.595 11.4425 17.597 14.5024 17.2538 17.2829H25.2739C25.7421 15.9415 25.9995 14.501 25.9995 13.0001C25.9997 11.4795 25.7363 10.0213 25.2568 8.66553Z" fill="#3757A6"/>
		<path d="M17.247 8.66554H25.2566C25.2554 8.66143 25.2541 8.65797 25.2525 8.65424C23.5888 3.96301 19.309 0.511506 14.167 0.0533447C16.1571 1.14411 16.7383 4.59994 17.247 8.66554Z" fill="#EFEFEF"/>
		<path d="M14.167 25.946C19.3183 25.487 23.604 22.0236 25.2612 17.3198C25.2656 17.3073 25.2692 17.2949 25.2737 17.2828H17.2535C16.7488 21.3704 16.165 24.8507 14.167 25.946Z" fill="#E73B36"/>
		<path d="M0 13.0001C0 14.5012 0.257815 15.9415 0.725583 17.2829H17.9231C18.2667 14.5022 18.2643 11.4425 17.9168 8.66553H0.742873C0.263359 10.0213 0 11.4795 0 13.0001Z" fill="#3757A6"/>
		<path d="M0.746304 8.65437C0.745097 8.65804 0.743834 8.66156 0.742188 8.66567H17.9161C17.4071 4.60002 16.1566 1.14424 14.1668 0.0534745C13.7819 0.0193882 13.3928 0.000122071 12.9991 0.000122071C7.3439 6.71816e-05 2.53476 3.61184 0.746304 8.65437Z" fill="#EFEFEF"/>
		<path d="M17.9231 17.283H0.725586C0.729922 17.2951 0.733984 17.3074 0.738101 17.3199C2.51943 22.3753 7.33547 25.9999 12.9997 25.9999C13.3934 25.9999 13.7826 25.9806 14.1674 25.9461C16.1657 24.8508 17.4184 21.3706 17.9231 17.283Z" fill="#E73B36"/>
	</g>
	<defs>
		<clipPath id="clip0">
			<rect width="26" height="26" fill="white"/>
		</clipPath>
	</defs>
</svg>
