<svg width="20" height="20" viewBox="0 0 20 20" fill="none" xmlns="http://www.w3.org/2000/svg">
	<g clip-path="url(#clip0)">
		<path d="M10.0015 20.0008C15.5241 20.0008 20.0011 15.5238 20.0011 10.0012C20.0011 4.47861 15.5241 0.00164795 10.0015 0.00164795C4.47892 0.00164795 0.00195312 4.47861 0.00195312 10.0012C0.00195312 15.5238 4.47892 20.0008 10.0015 20.0008Z" fill="white"/>
		<path d="M19.4289 6.66577H13.2676C13.5352 8.80194 13.5368 11.1557 13.2728 13.2945H19.442C19.8022 12.2627 20.0002 11.1546 20.0002 10C20.0004 8.83035 19.7978 7.70867 19.4289 6.66577Z" fill="#3757A6"/>
		<path d="M13.2667 6.66578H19.4279C19.427 6.66262 19.426 6.65996 19.4247 6.65708C18.145 3.04845 14.8529 0.393448 10.8975 0.0410156C12.4283 0.880063 12.8754 3.5384 13.2667 6.66578Z" fill="#EFEFEF"/>
		<path d="M10.8984 19.9584C14.8609 19.6054 18.1576 16.9412 19.4325 13.3229C19.4358 13.3133 19.4386 13.3038 19.4421 13.2945H13.2727C12.8844 16.4388 12.4354 19.1159 10.8984 19.9584Z" fill="#E73B36"/>
		<path d="M0 10C0 11.1547 0.19832 12.2627 0.558141 13.2945H13.787C14.0513 11.1555 14.0494 8.80194 13.7821 6.66577H0.571441C0.202584 7.70871 0 8.83039 0 10Z" fill="#3757A6"/>
		<path d="M0.574456 6.65717C0.573527 6.66 0.572556 6.6627 0.571289 6.66587H13.782C13.3905 3.53844 12.4285 0.880149 10.8979 0.0411014C10.6019 0.0148812 10.3025 6.10356e-05 9.99968 6.10356e-05C5.64953 1.8813e-05 1.95019 2.77831 0.574456 6.65717Z" fill="#EFEFEF"/>
		<path d="M13.7875 13.2946H0.558594C0.561929 13.3039 0.565054 13.3133 0.56822 13.323C1.93847 17.2118 5.64312 19.9999 10.0002 19.9999C10.3031 19.9999 10.6025 19.985 10.8985 19.9585C12.4356 19.116 13.3992 16.4389 13.7875 13.2946Z" fill="#E73B36"/>
	</g>
	<defs>
		<clipPath id="clip0">
			<rect width="20" height="20" fill="white"/>
		</clipPath>
	</defs>
</svg>
